<svg width="71" height="53" viewBox="0 0 71 53" fill="none" xmlns="http://www.w3.org/2000/svg">
<path d="M66.0581 20.6111C63.6456 20.6111 61.6831 22.5922 61.6831 25.0277V29.4444H58.7664V23.9121C58.7664 22.3622 58.1442 20.8439 57.0575 19.7484L53.7876 16.4474C52.7023 15.3504 51.1983 14.7221 49.6632 14.7221H41.2663V8.83331H45.6413C48.054 8.83331 50.0163 6.85217 50.0163 4.41665C50.0163 1.98114 48.054 0 45.6413 0H28.1413C25.7288 0 23.7663 1.98114 23.7663 4.41665C23.7663 6.85217 25.7288 8.83331 28.1413 8.83331H32.5163V14.7222H27.0362C25.501 14.7222 23.9971 15.3505 22.9118 16.4475L18.7874 20.6112H16.4746C14.062 20.6112 12.0996 22.5922 12.0996 25.0279V29.4445H9.18311V25.0279C9.18311 22.5922 7.22065 20.6112 4.80811 20.6112C2.39556 20.6112 0.433105 22.5922 0.433105 25.0279V42.6945C0.433105 45.13 2.39556 47.1111 4.80811 47.1111C7.22065 47.1111 9.18311 45.13 9.18311 42.6945V38.2778H12.0997V42.6945C12.0997 45.13 14.0622 47.1111 16.4748 47.1111H18.7876L22.912 51.2748C23.9973 52.3717 25.5012 53 27.0364 53H46.7465C48.2818 53 49.7858 52.3717 50.8709 51.2748L57.0575 45.0293C58.1442 43.9337 58.7664 42.4154 58.7664 40.8656V38.2778H61.6831V42.6945C61.6831 45.13 63.6456 47.1111 66.0581 47.1111C68.4706 47.1111 70.4331 45.13 70.4331 42.6945V25.0279C70.4331 22.5922 68.4706 20.6111 66.0581 20.6111ZM67.5166 42.6943C67.5164 43.5065 66.8628 44.1665 66.0581 44.1665C65.2536 44.1665 64.5998 43.5067 64.5998 42.6943V36.8053C64.5998 35.9915 63.9474 35.3331 63.1413 35.3331H57.3081C56.502 35.3331 55.8498 35.9915 55.8498 36.8053V40.8655C55.8498 41.6404 55.5379 42.3996 54.9953 42.9473L48.8087 49.1926C48.2661 49.7406 47.5142 50.0553 46.7465 50.0553H27.0362C26.2685 50.0553 25.5166 49.7406 24.9742 49.1926L20.4225 44.5978C20.149 44.3217 19.7788 44.1664 19.3913 44.1664H16.4748C15.6701 44.1664 15.0163 43.5065 15.0163 42.6942V36.8053C15.0163 35.9915 14.3641 35.3329 13.558 35.3329H7.72473C6.91864 35.3329 6.26635 35.9915 6.26635 36.8053V42.6942C6.26649 43.5067 5.6127 44.1665 4.80811 44.1665C4.00351 44.1665 3.34973 43.5067 3.34973 42.6943V25.0277C3.34973 24.2154 4.00339 23.5553 4.80811 23.5553C5.61283 23.5553 6.26649 24.2152 6.26649 25.0277V30.9166C6.26649 31.7303 6.91878 32.3888 7.72487 32.3888H13.5581C14.3642 32.3888 15.0165 31.7303 15.0165 30.9166V25.0277C15.0165 24.2154 15.6701 23.5553 16.4749 23.5553H19.3914C19.7788 23.5553 20.1492 23.4002 20.4226 23.1241L24.9742 18.5292C25.5168 17.9815 26.2687 17.6666 27.0362 17.6666H33.9748C34.7809 17.6666 35.4331 17.0082 35.4331 16.1944V7.36104C35.4331 6.54728 34.7809 5.88878 33.9748 5.88878H28.1413C27.3368 5.88892 26.6831 5.22891 26.6831 4.41665C26.6831 3.6044 27.3368 2.94439 28.1414 2.94439H45.6414C46.4461 2.94439 47.0999 3.60427 47.0999 4.41665C47.0999 5.22904 46.4463 5.88892 45.6414 5.88892H39.8081C39.002 5.88892 38.3498 6.54742 38.3498 7.36118V16.1946C38.3498 17.0083 39.002 17.6668 39.8081 17.6668H49.6632C50.4308 17.6668 51.1828 17.9816 51.7254 18.5294L54.9953 21.8304C55.5379 22.3782 55.8498 23.1373 55.8498 23.9121V30.9166C55.8498 31.7303 56.502 32.3888 57.3081 32.3888H63.1414C63.9475 32.3888 64.5999 31.7303 64.5999 30.9166V25.0277C64.5999 24.2154 65.2536 23.5553 66.0583 23.5553C66.8628 23.5553 67.5166 24.2152 67.5166 25.0277V42.6943Z" fill="#B3B5B7"/>
<path d="M29.3571 26.76H30.4731V37.56H32.7591V39H26.3871V37.56H28.9611V28.362L26.3871 29.334V27.894L29.3571 26.76ZM33.9055 41.7H32.7355L33.7255 37.56H35.2555L33.9055 41.7ZM36.6056 29.712C36.6056 28.848 36.9836 28.104 37.7396 27.48C38.4956 26.856 39.6056 26.544 41.0696 26.544C42.4256 26.544 43.5176 26.874 44.3456 27.534C45.1736 28.194 45.5996 28.986 45.6236 29.91C45.6596 31.17 45.1016 32.202 43.9496 33.006C45.3536 33.702 46.0556 34.662 46.0556 35.886C46.0556 36.822 45.6416 37.614 44.8136 38.262C43.9976 38.898 42.7856 39.216 41.1776 39.216C39.5816 39.216 38.3456 38.868 37.4696 38.172C36.6056 37.476 36.1736 36.63 36.1736 35.634C36.1736 35.034 36.3476 34.44 36.6956 33.852C37.0556 33.252 37.5776 32.748 38.2616 32.34C37.1576 31.668 36.6056 30.792 36.6056 29.712ZM41.2496 33.492C40.6256 33.324 40.0556 33.144 39.5396 32.952C38.9396 33.24 38.4776 33.612 38.1536 34.068C37.8416 34.524 37.6856 34.992 37.6856 35.472C37.6856 36.204 37.9856 36.78 38.5856 37.2C39.1976 37.608 40.0736 37.812 41.2136 37.812C42.1736 37.812 42.9656 37.644 43.5896 37.308C44.2256 36.96 44.5436 36.51 44.5436 35.958C44.5436 35.49 44.3756 35.094 44.0396 34.77C43.7156 34.434 43.3976 34.206 43.0856 34.086C42.7736 33.966 42.2576 33.798 41.5376 33.582C41.4056 33.546 41.3096 33.516 41.2496 33.492ZM44.1116 30.18C44.1116 29.544 43.8416 29.016 43.3016 28.596C42.7616 28.164 42.0056 27.948 41.0336 27.948C40.1456 27.948 39.4376 28.116 38.9096 28.452C38.3816 28.776 38.1176 29.19 38.1176 29.694C38.1176 30.042 38.1896 30.348 38.3336 30.612C38.4896 30.864 38.7176 31.08 39.0176 31.26C39.3296 31.428 39.6116 31.566 39.8636 31.674C40.1156 31.77 40.4516 31.878 40.8716 31.998C40.9196 32.01 40.9556 32.022 40.9796 32.034C41.0036 32.034 41.0336 32.04 41.0696 32.052C41.1056 32.064 41.1416 32.076 41.1776 32.088C41.2136 32.1 41.4176 32.16 41.7896 32.268C42.1736 32.364 42.4676 32.442 42.6716 32.502C43.6316 31.878 44.1116 31.104 44.1116 30.18Z" fill="#B3B5B7"/>
</svg>
