<svg width="45" height="41" viewBox="0 0 45 41" fill="none" xmlns="http://www.w3.org/2000/svg">
<path d="M26.9824 1.16717C25.9717 1.61331 25.3125 2.61933 25.3125 3.72157V9.32025H15.4688C6.92578 9.32025 0 16.2136 0 24.7166C0 34.628 7.16309 39.0545 8.80664 39.9468C9.02637 40.0693 9.27246 40.113 9.51855 40.113C10.4766 40.113 11.25 39.3344 11.25 38.3897C11.25 37.7336 10.8721 37.13 10.3887 36.6838C9.5625 35.9052 8.4375 34.3744 8.4375 31.715C8.4375 27.0786 12.2168 23.317 16.875 23.317H25.3125V28.9156C25.3125 30.0179 25.9629 31.0239 26.9824 31.47C28.002 31.9162 29.1797 31.7325 30.0059 30.9977L44.0684 18.4006C44.6572 17.867 45 17.1147 45 16.3186C45 15.5225 44.666 14.7702 44.0684 14.2366L30.0059 1.63956C29.1797 0.895982 27.9932 0.712275 26.9824 1.16717Z" fill="#D5CD0D"/>
</svg>
