<svg width="50" height="44" viewBox="0 0 50 44" fill="none" xmlns="http://www.w3.org/2000/svg">
<path d="M50 20.4375C50 31.6582 38.8086 40.75 25 40.75C21.3769 40.75 17.9394 40.125 14.8339 39.002C13.6718 39.8516 11.7773 41.0137 9.53122 41.9902C7.18747 43.0059 4.3652 43.875 1.56247 43.875C0.927701 43.875 0.361294 43.4941 0.117154 42.9082C-0.126987 42.3223 0.00973192 41.6582 0.449185 41.209L0.478482 41.1797C0.507779 41.1504 0.546841 41.1113 0.605435 41.043C0.712857 40.9258 0.878873 40.7402 1.08395 40.4863C1.48434 39.998 2.02145 39.2754 2.56833 38.377C3.54489 36.7559 4.47262 34.627 4.65817 32.2344C1.72848 28.9141 -3.36815e-05 24.8418 -3.36815e-05 20.4375C-3.36815e-05 9.2168 11.1914 0.125 25 0.125C38.8086 0.125 50 9.2168 50 20.4375Z" fill="#B1B1B1"/>
</svg>
