<svg width="51" height="50" viewBox="0 0 51 50" fill="none" xmlns="http://www.w3.org/2000/svg">
<path d="M39.0872 37.5195C36.929 33.7695 32.8762 31.25 28.2473 31.25H21.9973C17.3684 31.25 13.3157 33.7695 11.1575 37.5195C14.595 41.3477 19.5754 43.75 25.1223 43.75C30.6692 43.75 35.6497 41.3379 39.0872 37.5195ZM0.122314 25C0.122314 18.3696 2.75624 12.0107 7.44465 7.32233C12.1331 2.63392 18.4919 0 25.1223 0C31.7527 0 38.1116 2.63392 42.8 7.32233C47.4884 12.0107 50.1223 18.3696 50.1223 25C50.1223 31.6304 47.4884 37.9893 42.8 42.6777C38.1116 47.3661 31.7527 50 25.1223 50C18.4919 50 12.1331 47.3661 7.44465 42.6777C2.75624 37.9893 0.122314 31.6304 0.122314 25ZM25.1223 26.5625C26.9871 26.5625 28.7755 25.8217 30.0942 24.5031C31.4128 23.1845 32.1536 21.3961 32.1536 19.5312C32.1536 17.6664 31.4128 15.878 30.0942 14.5594C28.7755 13.2408 26.9871 12.5 25.1223 12.5C23.2575 12.5 21.4691 13.2408 20.1505 14.5594C18.8319 15.878 18.0911 17.6664 18.0911 19.5312C18.0911 21.3961 18.8319 23.1845 20.1505 24.5031C21.4691 25.8217 23.2575 26.5625 25.1223 26.5625Z" fill="#B1B1B1"/>
</svg>
