<svg width="44" height="50" viewBox="0 0 44 50" fill="none" xmlns="http://www.w3.org/2000/svg">
<path d="M21.9981 0C20.2597 0 18.8553 1.39648 18.8553 3.125V5C11.6856 6.44531 6.28383 12.7539 6.28383 20.3125V22.1484C6.28383 26.7383 4.58473 31.1719 1.52044 34.6094L0.793656 35.4199C-0.0313442 36.3379 -0.227773 37.6562 0.27312 38.7793C0.774013 39.9023 1.90348 40.625 3.14098 40.625H40.8553C42.0928 40.625 43.2124 39.9023 43.7231 38.7793C44.2338 37.6562 44.0276 36.3379 43.2026 35.4199L42.4758 34.6094C39.4115 31.1719 37.7124 26.748 37.7124 22.1484V20.3125C37.7124 12.7539 32.3106 6.44531 25.141 5V3.125C25.141 1.39648 23.7365 0 21.9981 0ZM26.4472 48.1738C27.6258 47.002 28.2838 45.4102 28.2838 43.75H21.9981H15.7124C15.7124 45.4102 16.3704 47.002 17.549 48.1738C18.7276 49.3457 20.3285 50 21.9981 50C23.6678 50 25.2687 49.3457 26.4472 48.1738Z" fill="#B1B1B1"/>
</svg>
