<svg width="34" height="50" viewBox="0 0 34 50" fill="none" xmlns="http://www.w3.org/2000/svg">
<path d="M24.7273 37.0909C25.6545 34.0096 27.5767 31.3823 29.4795 28.7647C29.9818 28.0789 30.4841 27.3931 30.967 26.6977C32.8795 23.9449 34 20.6125 34 17.0096C34 7.61135 26.3886 0 17 0C7.61136 0 0 7.61135 0 17C0 20.6028 1.12045 23.9449 3.03295 26.688C3.51591 27.3835 4.01818 28.0693 4.52045 28.7551C6.43295 31.3727 8.35511 34.0096 9.27273 37.0812H24.7273V37.0909ZM17 49.4545C21.2693 49.4545 24.7273 45.9965 24.7273 41.7272V40.1818H9.27273V41.7272C9.27273 45.9965 12.7307 49.4545 17 49.4545ZM9.27273 17C9.27273 17.85 8.57727 18.5454 7.72727 18.5454C6.87727 18.5454 6.18182 17.85 6.18182 17C6.18182 11.021 11.021 6.18181 17 6.18181C17.85 6.18181 18.5455 6.87726 18.5455 7.72726C18.5455 8.57726 17.85 9.27272 17 9.27272C12.7307 9.27272 9.27273 12.7307 9.27273 17Z" fill="#D4CD0D"/>
</svg>
