<svg width="50" height="43" viewBox="0 0 50 43" fill="none" xmlns="http://www.w3.org/2000/svg">
<path d="M4.64838 25.362L22.2949 41.9295C23.0273 42.617 23.9941 43 24.9999 43C26.0058 43 26.9726 42.617 27.705 41.9295L45.3515 25.362C48.3203 22.5827 49.9999 18.6839 49.9999 14.6083V14.0387C49.9999 7.17396 45.0683 1.3208 38.3398 0.191416C33.8867 -0.554959 29.3554 0.90833 26.1718 4.10989L24.9999 5.28838L23.8281 4.10989C20.6445 0.90833 16.1132 -0.554959 11.6601 0.191416C4.93158 1.3208 -6.10352e-05 7.17396 -6.10352e-05 14.0387V14.6083C-6.10352e-05 18.6839 1.67963 22.5827 4.64838 25.362Z" fill="#B1B1B1"/>
</svg>
